<svg id="Ebene_1" data-name="Ebene 1" xmlns="http://www.w3.org/2000/svg" viewBox="0 0 254 199.5"><defs><style>.cls-1{fill:none;stroke:#8ed1e3;stroke-miterlimit:10;}.cls-2{fill:#8ed1e3;}.cls-3{fill:#e6332a;}.cls-4{font-size:10.1px;font-family:AvenirNextCondensed-Bold, Avenir Next Condensed;font-weight:700;}.cls-4,.cls-5{fill:#36a9e1;}</style></defs><title>RH_lnl_logo_v1</title><circle class="cls-1" cx="124.27" cy="95.46" r="92.17"/><circle class="cls-2" cx="124.27" cy="95.46" r="86.58"/><path class="cls-3" d="M28.39,42.47A25.31,25.31,0,0,0,17.32,52.56Q13.59,59,14.21,68.31a20,20,0,0,0,.5,3.5A15.8,15.8,0,0,0,15.38,74,7.83,7.83,0,0,0,16,75.21a1.68,1.68,0,0,1,.3.76A21.17,21.17,0,0,1,11,75.75a9.43,9.43,0,0,1-3.93-1.63,8.37,8.37,0,0,1-2.56-3.25,14.48,14.48,0,0,1-1.16-5.11,18.06,18.06,0,0,1,1.13-7.55,27.69,27.69,0,0,1,4-7.25,39.81,39.81,0,0,1,6.3-6.53A47.84,47.84,0,0,1,22.78,39a49.26,49.26,0,0,1,9-3.79,41.46,41.46,0,0,1,9.5-1.8c.85-.06,1.64-.08,2.36-.08l2.21,0-11.9,82.78A30.2,30.2,0,0,1,40,117.81c2,.77,4.12,1.64,6.23,2.59l6.42,2.9c2.17,1,4.36,1.88,6.59,2.67a44.1,44.1,0,0,0,6.82,1.85,27.89,27.89,0,0,0,7.08.41,29,29,0,0,0,4.67-.71,21.48,21.48,0,0,0,4.75-1.78,42.23,42.23,0,0,1-1,7.52,23.34,23.34,0,0,1-2.14,5.8,11.49,11.49,0,0,1-3.23,3.82A7.84,7.84,0,0,1,72,144.42a18.22,18.22,0,0,1-8.13-1.36,54.53,54.53,0,0,1-8.23-4.23q-4.17-2.6-8.45-5.67a99.14,99.14,0,0,0-8.75-5.64,50.92,50.92,0,0,0-9.18-4.17,24.73,24.73,0,0,0-9.76-1.26l-1.28.09a8.84,8.84,0,0,0-1.32.2Z"/><path class="cls-3" d="M105.75,93.09a51.44,51.44,0,0,1-3,8.24,33.72,33.72,0,0,1-3.52,6,22.28,22.28,0,0,1-3.88,4.06,20.63,20.63,0,0,1-4,2.5,18.22,18.22,0,0,1-3.76,1.32,22.42,22.42,0,0,1-3.31.5,10.91,10.91,0,0,1-8-2.16q-3.06-2.49-4-7.83a28,28,0,0,1-4,5.9,20.77,20.77,0,0,1-4.16,3.58A13.86,13.86,0,0,1,60.1,117a21.63,21.63,0,0,1-3.8.63,14.72,14.72,0,0,1-4.83-.45,10.09,10.09,0,0,1-4-2.18,11.76,11.76,0,0,1-2.86-4,17.65,17.65,0,0,1-1.37-6.1,30,30,0,0,1,0-3.43c.06-1.25.19-2.6.39-4.07l5.21-37,16.38-1.12L59.67,98.43a17.42,17.42,0,0,0-.12,3.24,7,7,0,0,0,1,3.25,2.73,2.73,0,0,0,2.76,1.18,6.41,6.41,0,0,0,3-1,8.86,8.86,0,0,0,2.38-2.25,13.8,13.8,0,0,0,1.78-3.33,31.27,31.27,0,0,0,1.25-4.13l5.22-37,16.37-1.13L87.75,96.5a11.58,11.58,0,0,0-.26,1.89,13.65,13.65,0,0,0,0,1.81c.11,1.59.56,2.67,1.36,3.22a5.58,5.58,0,0,0,3.59.68,6.6,6.6,0,0,0,3-1,9.11,9.11,0,0,0,2.44-2.26,13.88,13.88,0,0,0,1.83-3.33A25.21,25.21,0,0,0,101,93.42Z"/><path class="cls-3" d="M158.59,89.47A49.75,49.75,0,0,1,154.22,101a26.85,26.85,0,0,1-5.11,6.74,14.79,14.79,0,0,1-5.3,3.23,21.13,21.13,0,0,1-4.92,1,16.48,16.48,0,0,1-6.41-.65,10.83,10.83,0,0,1-4.3-2.61,11.1,11.1,0,0,1-2.53-4,16.25,16.25,0,0,1-1-4.7,33.71,33.71,0,0,1,.34-6.79c.36-2.61.77-5.29,1.21-8s.85-5.4,1.21-8a31.09,31.09,0,0,0,.36-6.55c-.26-3.88-1.77-5.73-4.5-5.54a5.31,5.31,0,0,0-2.83,1,9.46,9.46,0,0,0-2.29,2.41,16.57,16.57,0,0,0-1.77,3.47,32.37,32.37,0,0,0-1.27,4.18l-5.22,37L93.5,114.4l8.15-57.66L118,55.62l-.82,6A20.88,20.88,0,0,1,120.61,58,17.17,17.17,0,0,1,124,55.88a15.4,15.4,0,0,1,3.19-1.11,19.52,19.52,0,0,1,2.84-.42,17,17,0,0,1,5.1.38,10.08,10.08,0,0,1,7.09,5.81,16.17,16.17,0,0,1,1.34,5.76,30.6,30.6,0,0,1-.08,4.94q-.22,2.67-.65,5.46c-.29,1.86-.59,3.71-.93,5.55s-.66,3.62-1,5.31-.53,3.26-.71,4.7a20.34,20.34,0,0,0-.16,3.78,5.69,5.69,0,0,0,1.21,3.37c.71.85,1.93,1.21,3.67,1.09a6.9,6.9,0,0,0,3.17-.94,8.29,8.29,0,0,0,2.36-2.23,16,16,0,0,0,1.8-3.33q.79-1.92,1.53-4.2Z"/><path class="cls-3" d="M196.78,86.86A65.11,65.11,0,0,1,191.85,95a41.45,41.45,0,0,1-6.48,7.19,34.59,34.59,0,0,1-8.22,5.34A28.59,28.59,0,0,1,167,110a24.45,24.45,0,0,1-7.39-.52,14.6,14.6,0,0,1-5.83-2.81,14,14,0,0,1-4-5.33A24.11,24.11,0,0,1,148,93.21a51.2,51.2,0,0,1,.14-7.62,55.47,55.47,0,0,1,1.54-8.94,52.74,52.74,0,0,1,3.22-9.09,33.4,33.4,0,0,1,5.25-8.11,27.84,27.84,0,0,1,7.53-6,24.23,24.23,0,0,1,10.13-2.78,18,18,0,0,1,6.28.49,10.39,10.39,0,0,1,4,2.12,7.88,7.88,0,0,1,2.23,3.22,13.36,13.36,0,0,1,.82,3.73,12.44,12.44,0,0,1-.23,3.67,7.9,7.9,0,0,1-1.12,2.67A5.18,5.18,0,0,1,186,68.25a5.76,5.76,0,0,1-2.3.66,7.41,7.41,0,0,1-4.09-1.06,19.09,19.09,0,0,0,.93-6.81,6.35,6.35,0,0,0-1-3.33A2.6,2.6,0,0,0,177,56.59a5.31,5.31,0,0,0-3.44,1.86,19.46,19.46,0,0,0-3.12,4.5,41.06,41.06,0,0,0-2.61,6.32,64.84,64.84,0,0,0-1.92,7.32,66.25,66.25,0,0,0-1.11,7.52,46.14,46.14,0,0,0-.11,6.9,18.1,18.1,0,0,0,.85,4.71,6.68,6.68,0,0,0,1.76,2.8,5.52,5.52,0,0,0,2.65,1.3,13.81,13.81,0,0,0,3.61.17,20,20,0,0,0,6.07-1.31,21.82,21.82,0,0,0,5-2.79,29,29,0,0,0,4.27-4q2-2.25,4-4.79Z"/><path class="cls-3" d="M185.3,108.11l11.19-78.44,16.66-3.43L209,55.18a21.14,21.14,0,0,1,3.41-3.46,17.56,17.56,0,0,1,3.4-2.13A15.4,15.4,0,0,1,219,48.48a19.33,19.33,0,0,1,2.84-.42,16.69,16.69,0,0,1,5.1.38A10,10,0,0,1,234,54.25,16.17,16.17,0,0,1,235.37,60a30.6,30.6,0,0,1-.08,4.94c-.16,1.78-.37,3.6-.66,5.46S234,74.12,233.7,76s-.65,3.62-.94,5.31-.53,3.26-.71,4.7a19.51,19.51,0,0,0-.16,3.78,5.69,5.69,0,0,0,1.2,3.37c.71.85,1.94,1.21,3.68,1.09a7,7,0,0,0,3.72-1,15.35,15.35,0,0,1-1.19,5.41,12.47,12.47,0,0,1-2.61,3.83,10.86,10.86,0,0,1-3.63,2.37,14.08,14.08,0,0,1-4.31,1,12.34,12.34,0,0,1-5.54-.71,9.55,9.55,0,0,1-3.72-2.64,11.23,11.23,0,0,1-2.17-4,19.91,19.91,0,0,1-.88-4.71,33.71,33.71,0,0,1,.34-6.79q.54-3.91,1.21-8c.44-2.75.85-5.4,1.21-8a32.5,32.5,0,0,0,.36-6.55q-.41-5.82-4.51-5.54a5.38,5.38,0,0,0-2.64.87,8.91,8.91,0,0,0-2.2,2.11,15.87,15.87,0,0,0-1.77,3.05,25.8,25.8,0,0,0-1.31,3.65L201.68,107Z"/><path class="cls-3" d="M126.92,138.87H114v-17h5.12V134.8h7.78Z"/><path class="cls-3" d="M144.21,138.87h-12.8v-17H144v3.41h-7.47v3.11h7.13v3.42h-7.13v3.63h7.68Z"/><path class="cls-3" d="M167.8,138.87h-5.24l-1.39-3.45H153.8l-1.41,3.45h-5.25l7.51-17h5.67Zm-7.8-6.4-2.49-6.2-2.51,6.2Z"/><path class="cls-3" d="M188,138.87h-5.5l-1.33-3a12.67,12.67,0,0,0-1.33-2.42,2.82,2.82,0,0,0-1.14-1,4.21,4.21,0,0,0-1.44-.21h-.58v6.63h-5.12v-17h8.71a6.36,6.36,0,0,1,3.46.86,5.12,5.12,0,0,1,1.94,2.08,5.28,5.28,0,0,1,.59,2.33,4.38,4.38,0,0,1-.49,2.17,3.91,3.91,0,0,1-1.05,1.3,11,11,0,0,1-1.24.77,5.09,5.09,0,0,1,1.36,1.13,14.74,14.74,0,0,1,1.45,2.66Zm-7-11.62a1.76,1.76,0,0,0-.77-1.65,5.08,5.08,0,0,0-2.51-.46h-1.08v4.09h1.1a5.46,5.46,0,0,0,2.57-.41A1.67,1.67,0,0,0,181.05,127.25Z"/><path class="cls-3" d="M210.3,138.87h-4.56l-8.82-9.47v9.47h-5.07v-17h4.55l8.78,9.41v-9.41h5.12Z"/><path class="cls-3" d="M107.74,132.52a3.33,3.33,0,0,1-.47.1c-.15,0-.29,0-.44,0a8,8,0,0,1-.73,2.61,7,7,0,0,1-1.48,2,6.2,6.2,0,0,1-2.09,1.28,7.07,7.07,0,0,1-2.6.46,6.16,6.16,0,0,1-1.89-.27,4.2,4.2,0,0,1-1.43-.79,3.7,3.7,0,0,1-.91-1.26,4.16,4.16,0,0,1-.31-1.66,5.63,5.63,0,0,1,.32-1.85,6.74,6.74,0,0,1,.88-1.68,6.45,6.45,0,0,1,1.32-1.34,4.91,4.91,0,0,1,1.61-.82v-.09a3.74,3.74,0,0,1-.6-.59,3,3,0,0,1-.61-1.37,5.68,5.68,0,0,1-.07-.87,4.1,4.1,0,0,1,.39-1.75,4.9,4.9,0,0,1,1.05-1.46,5.06,5.06,0,0,1,1.55-1,4.88,4.88,0,0,1,1.9-.38,4.24,4.24,0,0,1,1.4.23,3.37,3.37,0,0,1,1.11.64,2.88,2.88,0,0,1,1,2.22,2.73,2.73,0,0,1-.12.83,2.07,2.07,0,0,1-.35.66,1.58,1.58,0,0,1-.54.42,1.46,1.46,0,0,1-.69.16,1.64,1.64,0,0,1-.76-.18,1.82,1.82,0,0,1-.6-.51,1.84,1.84,0,0,0,.66-.76,2.43,2.43,0,0,0,.26-1.09,1.47,1.47,0,0,0-.31-1,1.07,1.07,0,0,0-.85-.36,1.57,1.57,0,0,0-.87.26,2.46,2.46,0,0,0-.73.71,3.81,3.81,0,0,0-.51,1,3.74,3.74,0,0,0-.19,1.21,2.84,2.84,0,0,0,2.26,2.92v.09a3.94,3.94,0,0,0-1.53.64,5.52,5.52,0,0,0-1.28,1.18,5.77,5.77,0,0,0-.87,1.55,4.72,4.72,0,0,0-.32,1.72,2.58,2.58,0,0,0,.58,1.8,2.07,2.07,0,0,0,1.61.65,3.65,3.65,0,0,0,1.44-.3,4.47,4.47,0,0,0,1.31-.87,5.37,5.37,0,0,0,1.63-3l-.5,0a3,3,0,0,0-.53.11,4.38,4.38,0,0,0-1,.51,2.73,2.73,0,0,0-.71.68l0,0a1.7,1.7,0,0,1-.25-.39,3.56,3.56,0,0,1-.17-.41,2,2,0,0,1,0-.93,2.09,2.09,0,0,1,.34-.81,2.83,2.83,0,0,1,.65-.64,3.21,3.21,0,0,1,.85-.42,4.54,4.54,0,0,1,.75-.16l.76-.08.76-.07a5.43,5.43,0,0,0,.72-.1,5.81,5.81,0,0,0,.54-.23,5.58,5.58,0,0,0,.52-.32c.16-.12.31-.23.44-.35a1.8,1.8,0,0,0,.33-.36h0a2.55,2.55,0,0,1,.3.39,1.78,1.78,0,0,1,.18.43,1.73,1.73,0,0,1,0,.93,2.31,2.31,0,0,1-.39.86,2.78,2.78,0,0,1-.71.7A3.2,3.2,0,0,1,107.74,132.52Z"/><text class="cls-4" transform="translate(104.81 37.59)">est.2018</text><polygon class="cls-5" points="102.21 164.7 98.02 166.9 98.82 162.24 95.44 158.94 100.12 158.26 102.21 154.01 104.31 158.26 108.99 158.94 105.6 162.24 106.4 166.9 102.21 164.7"/><polygon class="cls-5" points="124.27 164.7 120.08 166.9 120.88 162.24 117.49 158.94 122.17 158.26 124.27 154.01 126.36 158.26 131.04 158.94 127.66 162.24 128.46 166.9 124.27 164.7"/><polygon class="cls-5" points="146.32 164.7 142.14 166.9 142.94 162.24 139.55 158.94 144.23 158.26 146.32 154.01 148.42 158.26 153.1 158.94 149.71 162.24 150.51 166.9 146.32 164.7"/></svg>