<svg id="Ebene_1" data-name="Ebene 1" xmlns="http://www.w3.org/2000/svg" viewBox="0 0 294 238"><defs><style>.cls-1{fill:none;stroke:#8ed1e3;stroke-miterlimit:10;}.cls-2{fill:#8ed1e3;}.cls-3{fill:#e6332a;}.cls-4{font-size:10.1px;font-family:AvenirNextCondensed-Bold, Avenir Next Condensed;font-weight:700;}.cls-4,.cls-5,.cls-6{fill:#36a9e1;}.cls-6{font-size:22.82px;font-family:GillSans-Light, Gill Sans;letter-spacing:0.32em;}</style></defs><title>RH_lnl_logo_v1</title><circle class="cls-1" cx="141.73" cy="98.61" r="92.17"/><circle class="cls-2" cx="141.73" cy="98.61" r="86.58"/><path class="cls-3" d="M45.86,45.62a25.3,25.3,0,0,0-11.08,10.1Q31,62.19,31.68,71.46A20.38,20.38,0,0,0,32.17,75a15.88,15.88,0,0,0,.68,2.15,7.13,7.13,0,0,0,.61,1.24,1.57,1.57,0,0,1,.3.76,21.06,21.06,0,0,1-5.25-.22,9.32,9.32,0,0,1-3.93-1.63A8.22,8.22,0,0,1,22,74a14.65,14.65,0,0,1-1.16-5.11A18.24,18.24,0,0,1,22,61.36a27.64,27.64,0,0,1,4-7.24,40.29,40.29,0,0,1,6.3-6.54,49.1,49.1,0,0,1,7.94-5.4,49.65,49.65,0,0,1,9-3.79,41.38,41.38,0,0,1,9.49-1.8c.85-.05,1.64-.08,2.37-.07s1.46,0,2.2,0L51.41,119.34A30.42,30.42,0,0,1,57.46,121q3.06,1.16,6.23,2.58l6.41,2.91q3.25,1.47,6.6,2.67A44.9,44.9,0,0,0,83.52,131a27.38,27.38,0,0,0,7.08.41,28.86,28.86,0,0,0,4.66-.71A22.21,22.21,0,0,0,100,128.9a43,43,0,0,1-1,7.51,23.18,23.18,0,0,1-2.14,5.81A11.53,11.53,0,0,1,93.64,146a7.91,7.91,0,0,1-4.22,1.55,18.16,18.16,0,0,1-8.12-1.37A54.61,54.61,0,0,1,73.06,142c-2.78-1.73-5.59-3.61-8.44-5.67a103.19,103.19,0,0,0-8.76-5.64,51.21,51.21,0,0,0-9.17-4.17,24.75,24.75,0,0,0-9.76-1.26l-1.28.09a10.24,10.24,0,0,0-1.33.2Z"/><path class="cls-3" d="M123.21,96.25a50.35,50.35,0,0,1-2.95,8.23,33.12,33.12,0,0,1-3.52,6,21.91,21.91,0,0,1-3.87,4.06,20.38,20.38,0,0,1-4,2.5,18,18,0,0,1-3.76,1.32,21,21,0,0,1-3.31.5,10.94,10.94,0,0,1-8-2.15q-3.08-2.5-4-7.84a28.32,28.32,0,0,1-4,5.91,21,21,0,0,1-4.16,3.57,14.1,14.1,0,0,1-4.12,1.82,22.53,22.53,0,0,1-3.8.62,14.77,14.77,0,0,1-4.83-.45,10,10,0,0,1-4-2.18,11.56,11.56,0,0,1-2.87-4,17.89,17.89,0,0,1-1.37-6.1,29.8,29.8,0,0,1,0-3.42c.06-1.25.2-2.61.39-4.07l5.22-37,16.37-1.12-5.51,39.19a17.35,17.35,0,0,0-.11,3.24,7,7,0,0,0,.94,3.25,2.75,2.75,0,0,0,2.76,1.18,6.19,6.19,0,0,0,3-1A8.9,8.9,0,0,0,86.11,106a13.78,13.78,0,0,0,1.77-3.33,30.82,30.82,0,0,0,1.25-4.13l5.22-37,16.37-1.12-5.51,39.18a11.58,11.58,0,0,0-.26,1.89,15.58,15.58,0,0,0,0,1.81,4.07,4.07,0,0,0,1.37,3.23,5.56,5.56,0,0,0,3.58.67,6.6,6.6,0,0,0,3-1,9,9,0,0,0,2.44-2.26,13.9,13.9,0,0,0,1.84-3.33,26.22,26.22,0,0,0,1.22-4.13Z"/><path class="cls-3" d="M176.05,92.63a49.68,49.68,0,0,1-4.36,11.5,26.86,26.86,0,0,1-5.12,6.74,14.79,14.79,0,0,1-5.3,3.23,20.43,20.43,0,0,1-4.92,1,16.21,16.21,0,0,1-6.4-.65,11,11,0,0,1-4.31-2.6,11.28,11.28,0,0,1-2.53-4,16.58,16.58,0,0,1-1-4.69,33.09,33.09,0,0,1,.34-6.8q.54-3.91,1.2-8c.45-2.75.85-5.39,1.22-7.95a32.5,32.5,0,0,0,.36-6.55q-.41-5.82-4.51-5.54a5.31,5.31,0,0,0-2.83,1,9.63,9.63,0,0,0-2.29,2.41,17.59,17.59,0,0,0-1.77,3.47,32,32,0,0,0-1.27,4.19l-5.22,37L111,117.55l8.15-57.66,16.37-1.12-.82,6a21.18,21.18,0,0,1,3.41-3.55,16.85,16.85,0,0,1,3.4-2.16,15.13,15.13,0,0,1,3.18-1.11,19.65,19.65,0,0,1,2.85-.42,17,17,0,0,1,5.1.38,10.47,10.47,0,0,1,4.18,2,10.68,10.68,0,0,1,2.91,3.81A16.39,16.39,0,0,1,161,69.46,31.83,31.83,0,0,1,161,74.4q-.24,2.66-.66,5.45t-.93,5.56c-.34,1.84-.65,3.61-1,5.3s-.53,3.26-.7,4.71a19.38,19.38,0,0,0-.16,3.77,5.68,5.68,0,0,0,1.2,3.38c.71.84,1.93,1.2,3.67,1.08a6.9,6.9,0,0,0,3.17-.94,8.25,8.25,0,0,0,2.36-2.22,16.3,16.3,0,0,0,1.81-3.33c.52-1.29,1-2.69,1.52-4.21Z"/><path class="cls-3" d="M214.24,90a65.11,65.11,0,0,1-4.93,8.14,41.08,41.08,0,0,1-6.48,7.2,34.86,34.86,0,0,1-8.22,5.33,28.81,28.81,0,0,1-10.17,2.51,24.5,24.5,0,0,1-7.4-.53,14.36,14.36,0,0,1-5.82-2.81,14,14,0,0,1-4-5.33,24.35,24.35,0,0,1-1.81-8.16,50,50,0,0,1,.15-7.62,56.74,56.74,0,0,1,1.53-8.94,53.09,53.09,0,0,1,3.23-9.09,33.26,33.26,0,0,1,5.24-8.11,27.84,27.84,0,0,1,7.53-6,24.27,24.27,0,0,1,10.13-2.78,18,18,0,0,1,6.28.49,10.64,10.64,0,0,1,4.05,2.12,8,8,0,0,1,2.23,3.22,13.69,13.69,0,0,1,.81,3.74A12.42,12.42,0,0,1,206.4,67a7.91,7.91,0,0,1-1.13,2.67,5.18,5.18,0,0,1-1.84,1.69,5.6,5.6,0,0,1-2.29.66A7.31,7.31,0,0,1,197.05,71a19.07,19.07,0,0,0,.93-6.81,6.59,6.59,0,0,0-1-3.33,2.59,2.59,0,0,0-2.48-1.11,5.32,5.32,0,0,0-3.44,1.85,19.53,19.53,0,0,0-3.12,4.51,40.92,40.92,0,0,0-2.61,6.31,67.64,67.64,0,0,0-1.92,7.32,68.88,68.88,0,0,0-1.1,7.52,43.61,43.61,0,0,0-.11,6.9,17.69,17.69,0,0,0,.85,4.71,6.77,6.77,0,0,0,1.75,2.81,5.58,5.58,0,0,0,2.66,1.29,13.29,13.29,0,0,0,3.6.17,19.74,19.74,0,0,0,6.08-1.31,21,21,0,0,0,5-2.79,29,29,0,0,0,4.28-4c1.32-1.51,2.65-3.1,4-4.79Z"/><path class="cls-3" d="M202.77,111.26,214,32.82l16.66-3.43-4.15,29a20.49,20.49,0,0,1,3.42-3.47,17.5,17.5,0,0,1,3.39-2.13,15.4,15.4,0,0,1,3.19-1.11,19.52,19.52,0,0,1,2.84-.42,17,17,0,0,1,5.1.38,10.35,10.35,0,0,1,4.18,2,10.45,10.45,0,0,1,2.91,3.81,16.38,16.38,0,0,1,1.35,5.77,33,33,0,0,1-.08,4.93q-.24,2.67-.66,5.46t-.93,5.55q-.51,2.77-.95,5.31c-.29,1.7-.53,3.26-.71,4.71a20.2,20.2,0,0,0-.16,3.77,5.75,5.75,0,0,0,1.21,3.38c.71.84,1.93,1.2,3.67,1.08a7,7,0,0,0,3.72-1,15.14,15.14,0,0,1-1.19,5.41,12.13,12.13,0,0,1-2.61,3.83,10.86,10.86,0,0,1-3.63,2.37,14,14,0,0,1-4.31,1,12.2,12.2,0,0,1-5.54-.71A9.55,9.55,0,0,1,237,105.6a11.39,11.39,0,0,1-2.17-4,20.44,20.44,0,0,1-.88-4.7,33.17,33.17,0,0,1,.35-6.8c.35-2.61.76-5.29,1.2-8s.85-5.39,1.21-8a31.09,31.09,0,0,0,.36-6.55q-.39-5.82-4.5-5.54a5.39,5.39,0,0,0-2.65.88,8.86,8.86,0,0,0-2.2,2.1,16.18,16.18,0,0,0-1.77,3,26.77,26.77,0,0,0-1.31,3.66l-5.45,38.4Z"/><path class="cls-3" d="M144.38,142h-12.9V125h5.12V138h7.78Z"/><path class="cls-3" d="M161.68,142H148.87V125h12.6v3.41H154v3.11h7.14V135H154v3.63h7.69Z"/><path class="cls-3" d="M185.27,142H180l-1.38-3.45h-7.38L169.85,142H164.6l7.52-17h5.66Zm-7.81-6.4-2.49-6.2-2.51,6.2Z"/><path class="cls-3" d="M205.48,142H200l-1.34-3a12.74,12.74,0,0,0-1.32-2.42,3,3,0,0,0-1.15-1,4.14,4.14,0,0,0-1.44-.21h-.58V142H189V125h8.71a6.36,6.36,0,0,1,3.46.86,5.12,5.12,0,0,1,1.94,2.08,5.34,5.34,0,0,1,.6,2.33,4.45,4.45,0,0,1-.5,2.18,4,4,0,0,1-1.05,1.29,9.6,9.6,0,0,1-1.23.77,5,5,0,0,1,1.35,1.14,13.62,13.62,0,0,1,1.45,2.65Zm-7-11.62a1.74,1.74,0,0,0-.78-1.64,5.06,5.06,0,0,0-2.51-.47h-1.08v4.1h1.11a5.38,5.38,0,0,0,2.56-.42A1.65,1.65,0,0,0,198.52,130.4Z"/><path class="cls-3" d="M227.76,142H223.2l-8.81-9.46V142h-5.08V125h4.55l8.79,9.41V125h5.11Z"/><path class="cls-3" d="M125.2,135.67a3.06,3.06,0,0,1-.47.1l-.43,0a8.07,8.07,0,0,1-.74,2.61,6.61,6.61,0,0,1-1.47,2,6.32,6.32,0,0,1-2.09,1.29,7.36,7.36,0,0,1-2.6.45,6.18,6.18,0,0,1-1.9-.27,4.3,4.3,0,0,1-1.43-.79,3.55,3.55,0,0,1-.9-1.26,4.16,4.16,0,0,1-.32-1.66,5.67,5.67,0,0,1,.32-1.85,6.54,6.54,0,0,1,.89-1.67,6.17,6.17,0,0,1,1.31-1.34,4.85,4.85,0,0,1,1.61-.83v-.08a4.24,4.24,0,0,1-.6-.6,2.81,2.81,0,0,1-.39-.64,3.12,3.12,0,0,1-.22-.73,5.75,5.75,0,0,1-.06-.87,4.24,4.24,0,0,1,.38-1.75,4.76,4.76,0,0,1,1.06-1.46,5.13,5.13,0,0,1,1.55-1,4.8,4.8,0,0,1,1.89-.38,4.25,4.25,0,0,1,1.41.23,3.42,3.42,0,0,1,1.1.64,3,3,0,0,1,1,2.22,2.55,2.55,0,0,1-.13.84,1.93,1.93,0,0,1-.35.65,1.74,1.74,0,0,1-.54.43,1.57,1.57,0,0,1-.68.15,1.68,1.68,0,0,1-.77-.18,1.82,1.82,0,0,1-.6-.51,1.84,1.84,0,0,0,.66-.76,2.43,2.43,0,0,0,.26-1.09,1.42,1.42,0,0,0-.31-1,1.06,1.06,0,0,0-.84-.36,1.67,1.67,0,0,0-.88.26,2.58,2.58,0,0,0-.73.71,3.65,3.65,0,0,0-.5,1,3.78,3.78,0,0,0-.19,1.21,3,3,0,0,0,.6,1.89,2.92,2.92,0,0,0,1.65,1v.09a4.1,4.1,0,0,0-1.53.64,5.31,5.31,0,0,0-1.27,1.19,5.86,5.86,0,0,0-.88,1.54,4.94,4.94,0,0,0-.32,1.72,2.58,2.58,0,0,0,.59,1.8,2,2,0,0,0,1.6.65,3.73,3.73,0,0,0,1.45-.3,4.59,4.59,0,0,0,1.3-.86,5.49,5.49,0,0,0,1-1.33,5.43,5.43,0,0,0,.6-1.71l-.49,0a3.86,3.86,0,0,0-.53.11,4.67,4.67,0,0,0-1,.52,2.57,2.57,0,0,0-.71.68h0a2.13,2.13,0,0,1-.25-.39,2.05,2.05,0,0,1-.16-.41,1.86,1.86,0,0,1-.06-.93,2.22,2.22,0,0,1,.34-.81A2.78,2.78,0,0,1,121,134a3.09,3.09,0,0,1,.85-.43,5.85,5.85,0,0,1,.75-.16l.77-.08.76-.06c.25,0,.48-.06.71-.11a5.81,5.81,0,0,0,.54-.23,4.52,4.52,0,0,0,.52-.32,4.12,4.12,0,0,0,.45-.35,2.07,2.07,0,0,0,.32-.36h0a1.55,1.55,0,0,1,.3.4,1.93,1.93,0,0,1,.22,1.35,2.5,2.5,0,0,1-.4.86,2.94,2.94,0,0,1-.7.71A3.36,3.36,0,0,1,125.2,135.67Z"/><text class="cls-4" transform="translate(122.27 40.74)">est.2017</text><polygon class="cls-5" points="119.68 167.85 115.49 170.06 116.29 165.39 112.9 162.09 117.58 161.41 119.68 157.16 121.77 161.41 126.45 162.09 123.06 165.39 123.86 170.06 119.68 167.85"/><polygon class="cls-5" points="141.73 167.85 137.54 170.06 138.34 165.39 134.96 162.09 139.64 161.41 141.73 157.16 143.83 161.41 148.51 162.09 145.12 165.39 145.92 170.06 141.73 167.85"/><polygon class="cls-5" points="163.79 167.85 159.6 170.06 160.4 165.39 157.01 162.09 161.69 161.41 163.79 157.16 165.88 161.41 170.57 162.09 167.18 165.39 167.98 170.06 163.79 167.85"/><text class="cls-6" transform="translate(64.06 222.35)">ERLANGEN</text></svg>
