<svg id="Ebene_1" data-name="Ebene 1" xmlns="http://www.w3.org/2000/svg" viewBox="0 0 841.89 595.28"><defs><style>.cls-1,.cls-3{fill:none;stroke-miterlimit:10;}.cls-1{stroke:#8ed1e3;}.cls-2{fill:#0a7b34;}.cls-3{stroke:#0c9338;}.cls-4{font-size:64.48px;fill:#fff;letter-spacing:-0.04em;}.cls-4,.cls-6{font-family:Lobster-Regular, Lobster;}.cls-5{font-size:32.66px;font-family:GillSans-Bold, Gill Sans;letter-spacing:0.06em;}.cls-5,.cls-6{fill:#dedc00;}.cls-11,.cls-5,.cls-7{font-weight:700;}.cls-6{font-size:24.38px;letter-spacing:-0.04em;}.cls-11,.cls-7{font-size:10.1px;font-family:AvenirNextCondensed-Bold, Avenir Next Condensed;}.cls-7{fill:#184520;}.cls-8{fill:#165226;}.cls-9{fill:#8ed1e3;}.cls-10{fill:#e6332a;}.cls-11,.cls-12,.cls-13{fill:#36a9e1;}.cls-13{font-size:22.82px;font-family:GillSans-Light, Gill Sans;letter-spacing:0.32em;}</style></defs><title>RH_lnl_logo_v1</title><circle class="cls-1" cx="557.73" cy="257.37" r="92.17"/><circle class="cls-2" cx="273.63" cy="257.37" r="86.58"/><circle class="cls-3" cx="273.63" cy="257.37" r="92.25"/><text class="cls-4" transform="translate(207.55 254.72) rotate(-3.92)">Lunch</text><text class="cls-5" transform="translate(209.6 299.04)">LEARN</text><text class="cls-6" transform="translate(264.74 271.22)">&amp;</text><text class="cls-7" transform="translate(255.65 192.6)">est.2018</text><polygon class="cls-8" points="251.57 326.51 247.39 328.71 248.19 324.05 244.8 320.75 249.48 320.06 251.57 315.82 253.67 320.06 258.35 320.75 254.96 324.05 255.76 328.71 251.57 326.51"/><polygon class="cls-8" points="273.63 326.51 269.44 328.71 270.24 324.05 266.86 320.75 271.54 320.06 273.63 315.82 275.73 320.06 280.41 320.75 277.02 324.05 277.82 328.71 273.63 326.51"/><polygon class="cls-8" points="295.69 326.51 291.5 328.71 292.3 324.05 288.91 320.75 293.59 320.06 295.69 315.82 297.78 320.06 302.46 320.75 299.08 324.05 299.88 328.71 295.69 326.51"/><circle class="cls-9" cx="557.73" cy="257.37" r="86.58"/><path class="cls-10" d="M461.86,204.38a25.28,25.28,0,0,0-11.08,10.09q-3.73,6.48-3.1,15.75a20.09,20.09,0,0,0,.49,3.5,15.63,15.63,0,0,0,.68,2.16,7.13,7.13,0,0,0,.61,1.24,1.57,1.57,0,0,1,.3.76,20.57,20.57,0,0,1-5.25-.23,9.18,9.18,0,0,1-3.93-1.62,8.3,8.3,0,0,1-2.57-3.25,14.7,14.7,0,0,1-1.16-5.11,18.22,18.22,0,0,1,1.13-7.55,27.69,27.69,0,0,1,4-7.25,40.65,40.65,0,0,1,6.3-6.53,47.84,47.84,0,0,1,7.94-5.4,49,49,0,0,1,9-3.79,41.38,41.38,0,0,1,9.49-1.8c.85-.06,1.64-.08,2.37-.08s1.46,0,2.2,0L467.41,278.1a30.38,30.38,0,0,1,6,1.62q3.06,1.15,6.23,2.59l6.41,2.9q3.25,1.49,6.6,2.67a44.93,44.93,0,0,0,6.82,1.85,27.83,27.83,0,0,0,7.08.41,30,30,0,0,0,4.66-.71,21.74,21.74,0,0,0,4.76-1.78,43.13,43.13,0,0,1-1,7.52,23.1,23.1,0,0,1-2.14,5.8,11.47,11.47,0,0,1-3.22,3.82,7.9,7.9,0,0,1-4.22,1.54A18.15,18.15,0,0,1,497.3,305a54.61,54.61,0,0,1-8.24-4.23q-4.17-2.6-8.44-5.67a100.91,100.91,0,0,0-8.76-5.65,51.16,51.16,0,0,0-9.17-4.16,24.75,24.75,0,0,0-9.76-1.26l-1.28.09a8.77,8.77,0,0,0-1.33.2Z"/><path class="cls-10" d="M539.21,255a50,50,0,0,1-3,8.23,33.23,33.23,0,0,1-3.52,6,21.91,21.91,0,0,1-3.87,4.06,20.38,20.38,0,0,1-4,2.5,18,18,0,0,1-3.76,1.32,22.22,22.22,0,0,1-3.31.5,10.94,10.94,0,0,1-8-2.16q-3.08-2.49-4.05-7.83a28,28,0,0,1-4,5.9,21.05,21.05,0,0,1-4.16,3.58,14.06,14.06,0,0,1-4.12,1.81,22.6,22.6,0,0,1-3.8.63,14.77,14.77,0,0,1-4.83-.45,10.11,10.11,0,0,1-4-2.18,11.65,11.65,0,0,1-2.87-4,17.89,17.89,0,0,1-1.37-6.1,30,30,0,0,1,0-3.43c.06-1.25.2-2.6.39-4.07l5.22-37,16.37-1.12-5.51,39.19a17.35,17.35,0,0,0-.11,3.24,7,7,0,0,0,.94,3.25,2.75,2.75,0,0,0,2.76,1.18,6.41,6.41,0,0,0,3-1,8.9,8.9,0,0,0,2.39-2.25,13.78,13.78,0,0,0,1.77-3.33,31.27,31.27,0,0,0,1.25-4.13l5.22-37,16.37-1.13-5.51,39.19a11.44,11.44,0,0,0-.26,1.89,15.59,15.59,0,0,0,0,1.81,4.05,4.05,0,0,0,1.37,3.22,5.55,5.55,0,0,0,3.58.68,6.6,6.6,0,0,0,3-1,9.12,9.12,0,0,0,2.44-2.26,13.9,13.9,0,0,0,1.84-3.33,26.22,26.22,0,0,0,1.22-4.13Z"/><path class="cls-10" d="M592.05,251.38a49.78,49.78,0,0,1-4.36,11.51,26.86,26.86,0,0,1-5.12,6.74,14.93,14.93,0,0,1-5.3,3.23,20.93,20.93,0,0,1-4.92,1,16.4,16.4,0,0,1-6.4-.65,11.1,11.1,0,0,1-4.31-2.61,11.24,11.24,0,0,1-2.53-3.95,16.57,16.57,0,0,1-1-4.7,33.12,33.12,0,0,1,.34-6.8c.36-2.6.76-5.28,1.2-8s.85-5.4,1.22-7.95a32.5,32.5,0,0,0,.36-6.55q-.4-5.82-4.51-5.54a5.31,5.31,0,0,0-2.83,1,9.63,9.63,0,0,0-2.29,2.41,17.32,17.32,0,0,0-1.77,3.47,31.9,31.9,0,0,0-1.27,4.18l-5.22,37L527,276.31l8.15-57.66,16.37-1.12-.82,6a21.57,21.57,0,0,1,3.41-3.55,17.23,17.23,0,0,1,3.4-2.15,14.58,14.58,0,0,1,3.18-1.11,19.65,19.65,0,0,1,2.85-.42,17,17,0,0,1,5.1.37,10.06,10.06,0,0,1,7.09,5.82,16.38,16.38,0,0,1,1.34,5.76,31.79,31.79,0,0,1-.08,4.94q-.24,2.67-.66,5.46t-.93,5.55c-.34,1.85-.65,3.62-1,5.31s-.53,3.26-.7,4.7a19.51,19.51,0,0,0-.16,3.78,5.62,5.62,0,0,0,1.2,3.37c.71.85,1.93,1.21,3.67,1.09a6.9,6.9,0,0,0,3.17-.94,8.29,8.29,0,0,0,2.36-2.23,16,16,0,0,0,1.81-3.33c.52-1.28,1-2.68,1.52-4.2Z"/><path class="cls-10" d="M630.24,248.77a65.11,65.11,0,0,1-4.93,8.14,40.66,40.66,0,0,1-6.48,7.19,34.25,34.25,0,0,1-8.22,5.33,28.38,28.38,0,0,1-10.17,2.51,24.52,24.52,0,0,1-7.4-.52,14.49,14.49,0,0,1-5.82-2.81,14,14,0,0,1-4-5.33,24.35,24.35,0,0,1-1.81-8.16,50,50,0,0,1,.15-7.62,56.54,56.54,0,0,1,1.53-8.94,52.49,52.49,0,0,1,3.23-9.09,33.07,33.07,0,0,1,5.24-8.11,27.65,27.65,0,0,1,7.53-6,24.27,24.27,0,0,1,10.13-2.78,17.76,17.76,0,0,1,6.28.49,10.37,10.37,0,0,1,4.05,2.12,8,8,0,0,1,2.23,3.22,13.7,13.7,0,0,1,.81,3.73,12.47,12.47,0,0,1-.22,3.67,7.91,7.91,0,0,1-1.13,2.67,5.28,5.28,0,0,1-1.84,1.69,5.76,5.76,0,0,1-2.29.66,7.39,7.39,0,0,1-4.09-1.06A19.12,19.12,0,0,0,614,223a6.53,6.53,0,0,0-1-3.33,2.62,2.62,0,0,0-2.48-1.12,5.33,5.33,0,0,0-3.44,1.86,19.46,19.46,0,0,0-3.12,4.5,41.06,41.06,0,0,0-2.61,6.32,67,67,0,0,0-1.92,7.32,68.53,68.53,0,0,0-1.1,7.52,43.61,43.61,0,0,0-.11,6.9,17.53,17.53,0,0,0,.85,4.7,6.64,6.64,0,0,0,1.75,2.81,5.51,5.51,0,0,0,2.66,1.3,14.16,14.16,0,0,0,3.6.17,20,20,0,0,0,6.08-1.31,21.75,21.75,0,0,0,5-2.79,29,29,0,0,0,4.28-4q2-2.25,4-4.79Z"/><path class="cls-10" d="M618.77,270,630,191.58l16.66-3.43-4.15,28.94a21.26,21.26,0,0,1,3.42-3.47,17.92,17.92,0,0,1,3.39-2.12,14.84,14.84,0,0,1,3.19-1.11,19.52,19.52,0,0,1,2.84-.42,17,17,0,0,1,5.1.37,10.61,10.61,0,0,1,4.18,2,10.41,10.41,0,0,1,2.91,3.82,16.38,16.38,0,0,1,1.35,5.76,33.08,33.08,0,0,1-.08,4.94q-.24,2.67-.66,5.46t-.93,5.55q-.51,2.77-.95,5.31c-.29,1.69-.53,3.26-.71,4.7a20.34,20.34,0,0,0-.16,3.78,5.69,5.69,0,0,0,1.21,3.37c.71.85,1.93,1.21,3.67,1.09a7,7,0,0,0,3.72-1,15.14,15.14,0,0,1-1.19,5.41,12.13,12.13,0,0,1-2.61,3.83,10.86,10.86,0,0,1-3.63,2.37,14.32,14.32,0,0,1-4.31,1,12.34,12.34,0,0,1-5.54-.71,9.55,9.55,0,0,1-3.72-2.64,11.39,11.39,0,0,1-2.17-4,20.43,20.43,0,0,1-.88-4.71,33.2,33.2,0,0,1,.35-6.8c.35-2.6.76-5.28,1.2-8s.85-5.39,1.21-7.94a31.12,31.12,0,0,0,.36-6.55q-.39-5.82-4.5-5.54a5.38,5.38,0,0,0-2.65.87,8.73,8.73,0,0,0-2.2,2.11,16.09,16.09,0,0,0-1.77,3,27.76,27.76,0,0,0-1.31,3.66l-5.45,38.41Z"/><path class="cls-10" d="M560.38,300.78h-12.9v-17h5.12v12.92h7.78Z"/><path class="cls-10" d="M577.68,300.78H564.87v-17h12.6v3.41H570v3.11h7.14v3.42H570v3.63h7.69Z"/><path class="cls-10" d="M601.27,300.78H596l-1.38-3.45h-7.38l-1.41,3.45H580.6l7.52-17h5.66Zm-7.81-6.4-2.49-6.2-2.51,6.2Z"/><path class="cls-10" d="M621.48,300.78H616l-1.34-3a12.74,12.74,0,0,0-1.32-2.42,2.9,2.9,0,0,0-1.15-1,4.14,4.14,0,0,0-1.44-.21h-.58v6.63H605v-17h8.71a6.27,6.27,0,0,1,3.46.86,5.05,5.05,0,0,1,1.94,2.08,5.31,5.31,0,0,1,.6,2.33,4.38,4.38,0,0,1-.5,2.17,3.91,3.91,0,0,1-1,1.3,10.85,10.85,0,0,1-1.23.77,5.2,5.2,0,0,1,1.35,1.13,13.79,13.79,0,0,1,1.45,2.66Zm-7-11.62a1.76,1.76,0,0,0-.78-1.65,5.08,5.08,0,0,0-2.51-.46h-1.08v4.09h1.11a5.41,5.41,0,0,0,2.56-.41A1.66,1.66,0,0,0,614.52,289.16Z"/><path class="cls-10" d="M643.76,300.78H639.2l-8.81-9.47v9.47h-5.08v-17h4.55l8.79,9.41v-9.41h5.11Z"/><path class="cls-10" d="M541.2,294.43a2.15,2.15,0,0,1-.47.09,3.13,3.13,0,0,1-.43,0,8,8,0,0,1-.74,2.61,6.78,6.78,0,0,1-1.47,2,6.47,6.47,0,0,1-2.09,1.28,7.15,7.15,0,0,1-2.6.46,5.89,5.89,0,0,1-1.9-.28,4,4,0,0,1-1.43-.79,3.43,3.43,0,0,1-.9-1.25,4.16,4.16,0,0,1-.32-1.66,5.63,5.63,0,0,1,.32-1.85,6.6,6.6,0,0,1,.89-1.68,6.4,6.4,0,0,1,1.31-1.34,5,5,0,0,1,1.61-.82v-.09a3.74,3.74,0,0,1-.6-.59,2.81,2.81,0,0,1-.39-.64,3.27,3.27,0,0,1-.22-.73,5.75,5.75,0,0,1-.06-.87,4.24,4.24,0,0,1,.38-1.75,4.8,4.8,0,0,1,1.06-1.47,5.1,5.1,0,0,1,1.55-1,4.8,4.8,0,0,1,1.89-.38A4.25,4.25,0,0,1,538,284a3.42,3.42,0,0,1,1.1.64,2.93,2.93,0,0,1,1,2.21,2.47,2.47,0,0,1-.13.84,1.89,1.89,0,0,1-.35.66,1.6,1.6,0,0,1-2,.39,1.68,1.68,0,0,1-.6-.5,1.84,1.84,0,0,0,.66-.76,2.46,2.46,0,0,0,.26-1.09,1.41,1.41,0,0,0-.31-1,1,1,0,0,0-.84-.36,1.58,1.58,0,0,0-.88.26,2.68,2.68,0,0,0-.73.7,4.08,4.08,0,0,0-.69,2.25,2.84,2.84,0,0,0,2.25,2.92v.09a3.94,3.94,0,0,0-1.53.64,5.47,5.47,0,0,0-1.27,1.18,6.09,6.09,0,0,0-.88,1.55,4.89,4.89,0,0,0-.32,1.72,2.58,2.58,0,0,0,.59,1.8,2,2,0,0,0,1.6.65,3.57,3.57,0,0,0,1.45-.31,4.39,4.39,0,0,0,1.3-.86,5.46,5.46,0,0,0,1.63-3l-.49,0a3.76,3.76,0,0,0-.53.1,4.67,4.67,0,0,0-1,.52,2.9,2.9,0,0,0-.71.68h0a1.78,1.78,0,0,1-.25-.38,2.31,2.31,0,0,1-.16-.41,1.87,1.87,0,0,1-.06-.93,2.09,2.09,0,0,1,.34-.81,2.82,2.82,0,0,1,.65-.64,3.37,3.37,0,0,1,.85-.42,4.54,4.54,0,0,1,.75-.16l.77-.08.76-.07a4,4,0,0,0,.71-.11,3.84,3.84,0,0,0,.54-.22,4.52,4.52,0,0,0,.52-.32c.17-.12.31-.24.45-.36a1.72,1.72,0,0,0,.32-.35h.05a1.36,1.36,0,0,1,.3.39,1.78,1.78,0,0,1,.18.43,1.73,1.73,0,0,1,0,.93,2.5,2.5,0,0,1-.4.86,2.74,2.74,0,0,1-.7.7A3.39,3.39,0,0,1,541.2,294.43Z"/><text class="cls-11" transform="translate(538.27 199.5)">est.2018</text><polygon class="cls-12" points="535.68 326.61 531.49 328.81 532.29 324.15 528.9 320.85 533.58 320.17 535.68 315.92 537.77 320.17 542.45 320.85 539.06 324.15 539.86 328.81 535.68 326.61"/><polygon class="cls-12" points="557.73 326.61 553.54 328.81 554.34 324.15 550.96 320.85 555.64 320.17 557.73 315.92 559.83 320.17 564.51 320.85 561.12 324.15 561.92 328.81 557.73 326.61"/><polygon class="cls-12" points="579.79 326.61 575.6 328.81 576.4 324.15 573.01 320.85 577.7 320.17 579.79 315.92 581.88 320.17 586.57 320.85 583.18 324.15 583.98 328.81 579.79 326.61"/><text class="cls-13" transform="translate(480.06 381.11)">ERLANGEN</text></svg>